<?xml version="1.0" encoding="utf-8"?>
<svg xmlns="http://www.w3.org/2000/svg" xmlns:xlink="http://www.w3.org/1999/xlink" style="margin: auto; background: none; display: block; shape-rendering: auto;" width="204px" height="204px" viewBox="0 0 100 100" preserveAspectRatio="xMidYMid">
<g transform="translate(50 50)">
  <g transform="scale(0.66)">
    <g transform="translate(-50 -50)">
      <g transform="rotate(342.317 50 50)">
        <animateTransform attributeName="transform" type="rotate" repeatCount="indefinite" values="0 50 50;360 50 50" keyTimes="0;1" dur="0.9615384615384615s"></animateTransform>
        <path fill-opacity="0.81" fill="#3a7e89" d="M50 50L50 0A50 50 0 0 1 100 50Z"></path>
      </g>
      <g transform="rotate(76.738 50 50)">
        <animateTransform attributeName="transform" type="rotate" repeatCount="indefinite" values="0 50 50;360 50 50" keyTimes="0;1" dur="1.282051282051282s"></animateTransform>
        <path fill-opacity="0.81" fill="#192d34" d="M50 50L50 0A50 50 0 0 1 100 50Z" transform="rotate(90 50 50)"></path>
      </g>
      <g transform="rotate(171.159 50 50)">
        <animateTransform attributeName="transform" type="rotate" repeatCount="indefinite" values="0 50 50;360 50 50" keyTimes="0;1" dur="1.923076923076923s"></animateTransform>
        <path fill-opacity="0.81" fill="#e9a3ab" d="M50 50L50 0A50 50 0 0 1 100 50Z" transform="rotate(180 50 50)"></path>
      </g>
      <g transform="rotate(265.579 50 50)">
        <animateTransform attributeName="transform" type="rotate" repeatCount="indefinite" values="0 50 50;360 50 50" keyTimes="0;1" dur="3.846153846153846s"></animateTransform>
        <path fill-opacity="0.81" fill="#3a7e89" d="M50 50L50 0A50 50 0 0 1 100 50Z" transform="rotate(270 50 50)"></path>
      </g>
    </g>
  </g>
</g>
<!-- [ldio] generated by https://loading.io/ --></svg>